<svg xmlns="http://www.w3.org/2000/svg" width="1200" height="1200" viewBox="0 0 1200 1200" fill="none">
  <rect width="1200" height="1200" rx="24" fill="#020817"/>
  <circle cx="870" cy="310" r="360" fill="#0ea5e9" opacity="0.18"/>
  <path d="M0 780c230-120 420-170 640-190 210-20 380-90 560-210" stroke="#64cefb" stroke-width="16" opacity="0.16"/>
  <g opacity="0.18" stroke="#94a3b8">
    <path d="M0 200h1200M0 400h1200M0 600h1200M0 800h1200M0 1000h1200"/>
    <path d="M200 0v1200M400 0v1200M600 0v1200M800 0v1200M1000 0v1200"/>
  </g>
  <rect x="390" y="320" width="420" height="420" rx="64" fill="#07111f" stroke="#64cefb" stroke-width="18"/>
  <path d="M500 450h130M500 600h100M500 750h130M500 450v300" stroke="#f8fafc" stroke-width="34" stroke-linecap="round"/>
  <path d="M500 600h100" stroke="#64cefb" stroke-width="34" stroke-linecap="round"/>
  <circle cx="700" cy="600" r="38" fill="#64cefb"/>
</svg>
